
<svg xmlns="http://www.w3.org/2000/svg" version="1.1" xmlns:xlink="http://www.w3.org/1999/xlink" preserveAspectRatio="none" x="0px" y="0px" width="180px" height="70px" viewBox="0 0 180 70">
<defs>
<g id="Layer0_0_FILL">
<path fill="#6BBEDC" stroke="none" d="
M 226.8 20.1
Q 226.8 19.3 226.05 18.9 225.35 18.6 224.5 18.6 223.6 18.6 222.85 18.9 222.15 19.3 222.15 20.1
L 222.15 49.1
Q 222.15 49.85 222.8 50.25 223.45 50.65 224.2 50.65
L 238.2 50.65
Q 238.9 50.65 239.25 50 239.6 49.35 239.6 48.6 239.6 47.8 239.25 47.15 238.9 46.5 238.2 46.5
L 226.8 46.5 226.8 20.1
M 247.5 20.1
Q 247.5 19.3 246.75 18.9 246 18.6 245.2 18.6 244.3 18.6 243.55 18.9 242.85 19.3 242.85 20.1
L 242.85 41.15
Q 242.85 44.65 244.15 46.85 245.5 49 247.75 49.95 250.05 50.9 252.85 50.9 255.7 50.9 257.95 49.95 260.25 49 261.55 46.85 262.9 44.65 262.9 41.15
L 262.9 20.1
Q 262.9 19.3 262.15 18.9 261.4 18.6 260.6 18.6 259.65 18.6 258.95 18.9 258.25 19.3 258.25 20.1
L 258.25 41.15
Q 258.25 44.05 256.8 45.4 255.4 46.8 252.85 46.8 250.3 46.8 248.95 45.4 247.5 44.05 247.5 41.15
L 247.5 20.1
M 288.25 28.35
Q 288.25 24.8 286.95 22.65 285.65 20.5 283.4 19.55 281.15 18.6 278.4 18.6
L 270.6 18.6
Q 269.7 18.6 269.1 19 268.55 19.45 268.55 20.1
L 268.55 49.15
Q 268.55 49.75 269.1 50.2 269.7 50.65 270.6 50.65
L 278.4 50.65
Q 281.15 50.65 283.4 49.7 285.65 48.7 286.95 46.6 288.25 44.4 288.25 40.85
L 288.25 28.35
M 283.6 28.35
L 283.6 40.85
Q 283.6 43.75 282.2 45.15 280.85 46.5 278.4 46.5
L 273.2 46.5 273.2 22.7 278.4 22.7
Q 280.85 22.7 282.2 24.1 283.6 25.45 283.6 28.35
M 205.1 18.7
Q 204.25 19.1 204 19.9
L 195.25 48.3
Q 195.25 48.6 195.25 48.7 195.25 49.3 195.65 49.7 196.1 50.1 196.8 50.4 197.5 50.65 198.1 50.65 198.7 50.65 199.15 50.45 199.6 50.2 199.75 49.7
L 201.5 43.45 212.35 43.45 214.15 49.7
Q 214.35 50.2 214.75 50.45 215.15 50.65 215.75 50.65 216.4 50.65 217.1 50.4 217.75 50.1 218.25 49.7 218.7 49.25 218.7 48.7 218.7 48.6 218.6 48.3
L 209.95 19.9
Q 209.65 19.1 208.8 18.7 207.95 18.3 206.95 18.3 205.95 18.3 205.1 18.7
M 211.3 39.7
L 202.55 39.7 206.95 24.7 211.3 39.7
M 189.2 23.7
Q 189.85 24.1 190.45 24.1 191.1 24.1 191.5 23.65 191.95 23.25 192.15 22.65 192.4 22.05 192.4 21.6 192.4 20.7 191.55 20.1 190.7 19.5 189.45 19.15 188.15 18.75 186.85 18.6 185.5 18.45 184.4 18.45 182.65 18.45 180.85 18.85 179.05 19.3 177.55 20.25 176.05 21.2 175.15 22.85 174.25 24.45 174.25 26.85 174.25 29.15 175.05 30.65 175.8 32.2 177.05 33.15 178.35 34.15 179.85 34.85 181.4 35.55 182.9 36.15 184.4 36.8 185.7 37.55 187 38.25 187.75 39.4 188.55 40.45 188.55 42.15 188.55 43.7 187.8 44.75 187.05 45.8 185.85 46.3 184.6 46.8 183 46.8 181.15 46.8 180 46.25 178.8 45.75 178 45.05 177.2 44.35 176.65 43.85 176.1 43.3 175.5 43.3 174.95 43.3 174.5 43.75 174.05 44.15 173.75 44.75 173.45 45.3 173.45 45.85 173.45 46.9 174.7 48.1 175.95 49.35 178.1 50.15 180.3 51 183.15 51 186.05 51 188.35 50 190.6 49 191.9 46.9 193.15 44.8 193.15 41.65 193.15 39.15 192.4 37.45 191.65 35.8 190.35 34.7 189.05 33.55 187.55 32.8 186 32.05 184.5 31.5 183 30.9 181.7 30.3 180.45 29.65 179.7 28.75 178.9 27.85 178.9 26.45 178.9 25.05 179.6 24.15 180.3 23.3 181.55 22.9 182.85 22.45 184.4 22.45 186.25 22.45 187.35 22.85 188.5 23.25 189.2 23.7
M 164.65 28.05
L 164.65 49.1
Q 164.65 49.85 165.4 50.25 166.1 50.65 166.95 50.65 167.85 50.65 168.55 50.25 169.3 49.85 169.3 49.1
L 169.3 20.9
Q 169.3 19.6 168.6 19.05 167.9 18.6 166.95 18.6 166.15 18.6 165.55 18.8 164.9 19.05 164.4 19.65 163.9 20.2 163.3 21.2
L 157.1 32.85 150.95 21.2
Q 150.4 20.2 149.85 19.65 149.35 19.05 148.7 18.8 148.1 18.6 147.3 18.6 146.4 18.6 145.65 19.05 144.95 19.6 144.95 20.9
L 144.95 49.1
Q 144.95 49.85 145.65 50.25 146.4 50.65 147.3 50.65 148.15 50.65 148.85 50.25 149.6 49.85 149.6 49.1
L 149.6 27.8 155.5 38.95
Q 155.8 39.55 156.25 39.75 156.65 40 157.05 40 157.55 40 157.95 39.75 158.4 39.5 158.75 38.95
L 164.65 28.05
M 122.7 18.95
Q 122.05 19.35 122.05 20.1
L 122.05 49.1
Q 122.05 49.85 122.7 50.25 123.35 50.65 124.1 50.65
L 139.75 50.65
Q 140.55 50.65 140.9 50 141.25 49.35 141.25 48.65 141.25 47.75 140.85 47.15 140.45 46.5 139.75 46.5
L 126.7 46.5 126.7 36.4 133.45 36.4
Q 134.3 36.4 134.65 35.85 135 35.25 135 34.6 135 33.9 134.6 33.3 134.2 32.75 133.45 32.75
L 126.7 32.75 126.7 22.7 139.75 22.7
Q 140.45 22.7 140.85 22.05 141.25 21.45 141.25 20.6 141.25 19.9 140.9 19.25 140.55 18.6 139.75 18.6
L 124.1 18.6
Q 123.35 18.6 122.7 18.95
M 115.25 22.65
Q 113.95 20.5 111.7 19.55 109.45 18.6 106.7 18.6
L 98.9 18.6
Q 98 18.6 97.4 19 96.85 19.45 96.85 20.1
L 96.85 49.15
Q 96.85 49.75 97.4 50.2 98 50.65 98.9 50.65
L 106.7 50.65
Q 109.45 50.65 111.7 49.7 113.95 48.7 115.25 46.6 116.55 44.4 116.55 40.85
L 116.55 28.35
Q 116.55 24.8 115.25 22.65
M 101.5 22.7
L 106.7 22.7
Q 109.15 22.7 110.5 24.1 111.9 25.45 111.9 28.35
L 111.9 40.85
Q 111.9 43.75 110.5 45.15 109.15 46.5 106.7 46.5
L 101.5 46.5 101.5 22.7
M 91.1 49.1
L 91.1 20.1
Q 91.1 19.3 90.35 18.9 89.65 18.6 88.8 18.6 87.9 18.6 87.15 18.9 86.45 19.3 86.45 20.1
L 86.45 49.1
Q 86.45 49.85 87.15 50.25 87.9 50.65 88.8 50.65 89.65 50.65 90.35 50.25 91.1 49.85 91.1 49.1
M 28.35 75.2
Q 28 76.55 28.15 77.5 29.2 82.65 34.65 83.5 36.05 83.9 37.75 83.4 42.35 82.2 43.3 77.5 43.4 76.3 43.15 75.2
L 42 70.3
Q 35.7 72.1 29.65 70.3
L 28.35 75.2
M 3.2 86.85
Q 1.45 90.2 0.2 93.35 3.8 94.5 7.4 95.35 20.75 98.5 35.75 98.5 50.95 98.45 64.15 95.35 67.75 94.5 71.35 93.35 70.25 89.95 68.45 86.85 67.2 84.65 64.15 82.9 62.1 81.75 59.2 80.8
L 46.05 76.55
Q 45 85.65 35.65 86.45 26.55 85.65 25.5 76.55
L 12.35 80.8
Q 9.45 81.75 7.4 82.9 4.35 84.65 3.2 86.85
M 21.9 31.35
Q 16.1 38.15 10.7 40.1 12.65 55.15 24.5 64.8 28.85 67.95 35.2 68 39.85 68.45 44.8 66.15 56.8 58.9 60.35 43.65 36.55 45.75 21.9 31.35
M 7.65 41.1
Q 4.35 42.25 0.4 42.65 4.1 58.55 11.55 64.8 16.65 68.5 21.75 66.35 10.25 55.9 7.65 41.1
M 7.45 17.9
Q 5.95 19.45 4.2 21.95 2.55 24.25 1.75 26.55 -0.55 33.1 0.15 39.45 13.6 37.85 19.95 28.85 18.25 26.95 17.75 24.8 14.75 24.9 9.45 26.25 7.7 26.7 7.45 23.7
L 7.45 17.9
M 62.45 40.55
Q 68.65 39.9 72 38.9 72.35 26.25 65.55 19.2
L 65.55 24.55
Q 65.6 26.7 61.25 25.65 41.65 22.05 20.9 24.25 30.6 43.25 62.45 40.55
M 71.8 42
L 63.65 43.4
Q 58.9 59.7 49.75 66.5 55.05 69 60.55 65.45 63.65 63.15 65.65 59.55 70.6 50.75 71.8 42 Z"/>

<path fill="#CC421B" stroke="none" d="
M 62.3 23.05
L 62.3 8.9
Q 35.05 -8.95 10.45 8.95
L 10.45 23.05
Q 37.25 18 62.3 23.05
M 42.9 9.05
L 42.9 12.05 37.95 12.05 37.95 17.1 34.7 17.1 34.7 12.05 30.05 12.05 30.05 9.05 34.7 9.05 34.7 4.3 37.95 4.3 37.95 9.05 42.9 9.05
M 288.25 83.25
L 288.25 54 86.35 54 86.35 83.25 288.25 83.25
M 109.45 62.15
Q 109.8 62.3 109.8 62.65
L 109.8 72
Q 109.8 73.6 109.2 74.55 108.6 75.5 107.6 75.95 106.55 76.35 105.3 76.35 104.1 76.35 103.05 75.95 102.05 75.5 101.45 74.55 100.9 73.6 100.9 72
L 100.9 62.65
Q 100.9 62.3 101.2 62.15 101.5 62 101.9 62 102.3 62 102.6 62.15 102.95 62.3 102.95 62.65
L 102.95 72
Q 102.95 73.3 103.55 73.9 104.2 74.55 105.3 74.55 106.45 74.55 107.1 73.9 107.7 73.3 107.7 72
L 107.7 62.65
Q 107.7 62.3 108.05 62.15 108.35 62 108.75 62 109.1 62 109.45 62.15
M 121.15 66
Q 121.15 67.15 120.8 67.95 120.45 68.7 119.85 69.15 119.2 69.6 118.45 69.85
L 121.15 74.95
Q 121.2 75 121.2 75.1 121.25 75.2 121.25 75.25 121.25 75.5 121.05 75.75 120.85 76 120.55 76.15 120.3 76.3 119.95 76.3 119.7 76.3 119.5 76.15 119.3 75.95 119.15 75.7
L 116.3 70.15 114.35 70.15 114.35 75.55
Q 114.35 75.9 114.05 76.1 113.7 76.25 113.3 76.25 112.95 76.25 112.6 76.1 112.3 75.9 112.3 75.55
L 112.3 62.65
Q 112.3 62.4 112.5 62.2 112.65 62 113 62
L 116.7 62
Q 117.9 62 118.95 62.35 119.95 62.7 120.55 63.6 121.15 64.45 121.15 66
M 90.25 66.35
Q 90.25 64.75 90.85 63.8 91.4 62.85 92.4 62.4 93.4 62 94.55 62 95.95 62 96.9 62.45 97.9 62.9 98.45 63.7 99 64.5 99 65.55 99 66.2 98.75 66.4 98.5 66.6 97.95 66.6 97.5 66.6 97.25 66.45 96.95 66.25 96.95 65.9 96.9 65.65 96.85 65.3 96.75 64.95 96.55 64.6 96.3 64.3 95.85 64.05 95.4 63.8 94.65 63.8 93.5 63.8 92.9 64.45 92.3 65.05 92.3 66.35
L 92.3 72
Q 92.3 73.3 92.9 73.9 93.55 74.55 94.7 74.55 95.45 74.55 95.9 74.3 96.3 74.1 96.55 73.75 96.75 73.4 96.8 73 96.9 72.65 96.95 72.35 96.95 71.95 97.25 71.8 97.55 71.65 97.95 71.65 98.5 71.65 98.75 71.85 99 72.1 99 72.7 99 73.75 98.45 74.6 97.9 75.45 96.9 75.9 95.9 76.35 94.55 76.35 93.4 76.35 92.4 75.95 91.4 75.5 90.85 74.55 90.25 73.6 90.25 72
L 90.25 66.35
M 130.7 63.35
Q 130.7 63.55 130.6 63.8 130.55 64.05 130.35 64.25 130.15 64.45 129.85 64.45 129.6 64.45 129.3 64.25 129 64.1 128.5 63.9 128 63.7 127.15 63.7 126.45 63.7 125.9 63.9 125.35 64.1 125.05 64.5 124.75 64.85 124.75 65.5 124.75 66.1 125.05 66.5 125.4 66.9 126 67.2 126.55 67.45 127.2 67.75 127.9 68 128.55 68.3 129.25 68.65 129.8 69.15 130.4 69.65 130.75 70.4 131.05 71.15 131.05 72.25 131.05 73.65 130.5 74.6 129.9 75.5 128.9 75.95 127.9 76.4 126.65 76.4 125.35 76.4 124.4 76.05 123.4 75.65 122.85 75.15 122.3 74.6 122.3 74.1 122.3 73.85 122.45 73.6 122.55 73.35 122.8 73.15 123 73 123.2 73 123.5 73 123.75 73.2 123.95 73.45 124.3 73.75 124.65 74.05 125.2 74.3 125.75 74.55 126.55 74.55 127.25 74.55 127.8 74.3 128.35 74.1 128.7 73.65 129 73.15 129 72.45 129 71.75 128.65 71.25 128.3 70.75 127.75 70.4 127.15 70.1 126.5 69.8 125.85 69.55 125.15 69.25 124.5 68.9 123.9 68.5 123.35 68.05 123 67.35 122.65 66.7 122.65 65.7 122.65 64.6 123.05 63.9 123.45 63.15 124.15 62.75 124.8 62.3 125.6 62.1 126.4 61.95 127.15 61.95 127.65 61.95 128.25 62 128.85 62.05 129.4 62.25 130 62.4 130.35 62.7 130.7 62.95 130.7 63.35
M 141.05 63.8
Q 141.65 64.75 141.65 66.35
L 141.65 72
Q 141.65 73.6 141.05 74.55 140.5 75.5 139.5 75.95 138.5 76.35 137.25 76.35 136.05 76.35 135.05 75.95 134.05 75.5 133.45 74.55 132.9 73.6 132.9 72
L 132.9 66.35
Q 132.9 64.75 133.45 63.8 134.05 62.85 135.05 62.4 136.05 62 137.25 62 138.5 62 139.5 62.4 140.5 62.85 141.05 63.8
M 150.35 64.25
Q 150.05 64.1 149.55 63.9 149.05 63.7 148.2 63.7 147.5 63.7 146.95 63.9 146.4 64.1 146.1 64.5 145.8 64.85 145.8 65.5 145.8 66.1 146.1 66.5 146.45 66.9 147.05 67.2 147.6 67.45 148.25 67.75 148.95 68 149.6 68.3 150.3 68.65 150.85 69.15 151.45 69.65 151.8 70.4 152.1 71.15 152.1 72.25 152.1 73.65 151.55 74.6 150.95 75.5 149.95 75.95 148.95 76.4 147.7 76.4 146.4 76.4 145.45 76.05 144.45 75.65 143.9 75.15 143.35 74.6 143.35 74.1 143.35 73.85 143.5 73.6 143.6 73.35 143.85 73.15 144.05 73 144.25 73 144.55 73 144.8 73.2 145 73.45 145.35 73.75 145.7 74.05 146.25 74.3 146.8 74.55 147.6 74.55 148.3 74.55 148.85 74.3 149.4 74.1 149.75 73.65 150.05 73.15 150.05 72.45 150.05 71.75 149.7 71.25 149.35 70.75 148.8 70.4 148.2 70.1 147.55 69.8 146.9 69.55 146.2 69.25 145.55 68.9 144.95 68.5 144.4 68.05 144.05 67.35 143.7 66.7 143.7 65.7 143.7 64.6 144.1 63.9 144.5 63.15 145.2 62.75 145.85 62.3 146.65 62.1 147.45 61.95 148.2 61.95 148.7 61.95 149.3 62 149.9 62.05 150.45 62.25 151.05 62.4 151.4 62.7 151.75 62.95 151.75 63.35 151.75 63.55 151.65 63.8 151.6 64.05 151.4 64.25 151.2 64.45 150.9 64.45 150.65 64.45 150.35 64.25
M 162.35 62
Q 163.6 62 164.6 62.4 165.6 62.85 166.15 63.8 166.75 64.75 166.75 66.35
L 166.75 71.9
Q 166.75 73.5 166.15 74.45 165.6 75.4 164.6 75.8 163.6 76.25 162.35 76.25
L 158.9 76.25
Q 158.5 76.25 158.25 76.05 158 75.85 158 75.6
L 158 62.65
Q 158 62.4 158.25 62.2 158.5 62 158.9 62
L 162.35 62
M 169.45 62.15
Q 169.75 62 170.05 62
L 177 62
Q 177.35 62 177.5 62.3 177.7 62.6 177.7 62.9 177.7 63.25 177.5 63.55 177.3 63.8 177 63.8
L 171.2 63.8 171.2 68.3 174.2 68.3
Q 174.55 68.3 174.7 68.55 174.9 68.8 174.9 69.15 174.9 69.4 174.75 69.65 174.6 69.95 174.2 69.95
L 171.2 69.95 171.2 74.4 177 74.4
Q 177.3 74.4 177.5 74.7 177.7 74.95 177.7 75.35 177.7 75.65 177.5 75.95 177.35 76.25 177 76.25
L 170.05 76.25
Q 169.75 76.25 169.45 76.1 169.15 75.9 169.15 75.55
L 169.15 62.7
Q 169.15 62.35 169.45 62.15
M 191.75 62.9
Q 191.75 63.25 191.55 63.55 191.35 63.8 191.05 63.8
L 185.25 63.8 185.25 68.3 188.25 68.3
Q 188.6 68.3 188.75 68.55 188.95 68.8 188.95 69.15 188.95 69.4 188.8 69.65 188.65 69.95 188.25 69.95
L 185.25 69.95 185.25 74.4 191.05 74.4
Q 191.35 74.4 191.55 74.7 191.75 74.95 191.75 75.35 191.75 75.65 191.55 75.95 191.4 76.25 191.05 76.25
L 184.1 76.25
Q 183.8 76.25 183.5 76.1 183.2 75.9 183.2 75.55
L 183.2 62.7
Q 183.2 62.35 183.5 62.15 183.8 62 184.1 62
L 191.05 62
Q 191.4 62 191.55 62.3 191.75 62.6 191.75 62.9
M 202.05 62.15
Q 202.35 62.3 202.35 62.65
L 202.35 75.55
Q 202.35 75.9 202.05 76.1 201.75 76.25 201.35 76.25 200.95 76.25 200.65 76.05 200.35 75.85 200.1 75.5
L 195.45 66.6 195.45 75.55
Q 195.45 75.9 195.15 76.1 194.8 76.25 194.4 76.25 194.05 76.25 193.7 76.1 193.4 75.9 193.4 75.55
L 193.4 62.7
Q 193.4 62.3 193.7 62.15 194.05 62 194.4 62 194.8 62 195.05 62.1 195.3 62.2 195.55 62.45 195.75 62.7 196 63.15
L 200.3 71.6 200.3 62.65
Q 200.3 62.3 200.65 62.15 200.95 62 201.35 62 201.75 62 202.05 62.15
M 204.95 62.7
Q 204.95 62.35 205.25 62.15 205.55 62 205.85 62
L 212.7 62
Q 213.05 62 213.2 62.3 213.35 62.6 213.35 62.9 213.35 63.25 213.2 63.55 213.05 63.8 212.7 63.8
L 207 63.8 207 68.3 210.05 68.3
Q 210.35 68.3 210.5 68.55 210.7 68.8 210.7 69.15 210.7 69.4 210.55 69.65 210.4 69.95 210.05 69.95
L 207 69.95 207 75.55
Q 207 75.9 206.7 76.1 206.35 76.25 205.95 76.25 205.6 76.25 205.25 76.1 204.95 75.9 204.95 75.55
L 204.95 62.7
M 223.35 62.9
Q 223.35 63.25 223.15 63.55 222.95 63.8 222.65 63.8
L 216.85 63.8 216.85 68.3 219.85 68.3
Q 220.2 68.3 220.35 68.55 220.55 68.8 220.55 69.15 220.55 69.4 220.4 69.65 220.25 69.95 219.85 69.95
L 216.85 69.95 216.85 74.4 222.65 74.4
Q 222.95 74.4 223.15 74.7 223.35 74.95 223.35 75.35 223.35 75.65 223.15 75.95 223 76.25 222.65 76.25
L 215.7 76.25
Q 215.4 76.25 215.1 76.1 214.8 75.9 214.8 75.55
L 214.8 62.7
Q 214.8 62.35 215.1 62.15 215.4 62 215.7 62
L 222.65 62
Q 223 62 223.15 62.3 223.35 62.6 223.35 62.9
M 229.35 62
Q 230.55 62 231.6 62.35 232.6 62.7 233.2 63.6 233.8 64.45 233.8 66 233.8 67.15 233.45 67.95 233.1 68.7 232.5 69.15 231.85 69.6 231.1 69.85
L 233.8 74.95
Q 233.85 75 233.85 75.1 233.9 75.2 233.9 75.25 233.9 75.5 233.7 75.75 233.5 76 233.2 76.15 232.95 76.3 232.6 76.3 232.35 76.3 232.15 76.15 231.95 75.95 231.8 75.7
L 228.95 70.15 227 70.15 227 75.55
Q 227 75.9 226.7 76.1 226.35 76.25 225.95 76.25 225.6 76.25 225.25 76.1 224.95 75.9 224.95 75.55
L 224.95 62.65
Q 224.95 62.4 225.15 62.2 225.3 62 225.65 62
L 229.35 62
M 246.25 62.2
Q 246.55 62.45 246.55 63
L 246.55 75.55
Q 246.55 75.9 246.25 76.1 245.9 76.25 245.5 76.25 245.15 76.25 244.8 76.1 244.5 75.9 244.5 75.55
L 244.5 66.2 241.9 71.05
Q 241.7 71.3 241.5 71.4 241.35 71.5 241.1 71.5 240.95 71.5 240.75 71.4 240.55 71.3 240.4 71.05
L 237.8 66.1 237.8 75.55
Q 237.8 75.9 237.5 76.1 237.15 76.25 236.75 76.25 236.4 76.25 236.05 76.1 235.75 75.9 235.75 75.55
L 235.75 63
Q 235.75 62.45 236.05 62.2 236.4 62 236.75 62 237.15 62 237.4 62.1 237.7 62.2 237.95 62.45 238.15 62.7 238.4 63.15
L 241.15 68.35 243.9 63.15
Q 244.15 62.7 244.4 62.45 244.6 62.2 244.9 62.1 245.15 62 245.5 62 245.95 62 246.25 62.2
M 249.45 62.15
Q 249.75 62 250.05 62
L 257 62
Q 257.35 62 257.5 62.3 257.7 62.6 257.7 62.9 257.7 63.25 257.5 63.55 257.3 63.8 257 63.8
L 251.2 63.8 251.2 68.3 254.2 68.3
Q 254.55 68.3 254.7 68.55 254.9 68.8 254.9 69.15 254.9 69.4 254.75 69.65 254.6 69.95 254.2 69.95
L 251.2 69.95 251.2 74.4 257 74.4
Q 257.3 74.4 257.5 74.7 257.7 74.95 257.7 75.35 257.7 75.65 257.5 75.95 257.35 76.25 257 76.25
L 250.05 76.25
Q 249.75 76.25 249.45 76.1 249.15 75.9 249.15 75.55
L 249.15 62.7
Q 249.15 62.35 249.45 62.15
M 266 62.35
Q 267 62.7 267.6 63.6 268.2 64.45 268.2 66 268.2 67.15 267.85 67.95 267.5 68.7 266.9 69.15 266.25 69.6 265.5 69.85
L 268.2 74.95
Q 268.25 75 268.25 75.1 268.3 75.2 268.3 75.25 268.3 75.5 268.1 75.75 267.9 76 267.6 76.15 267.35 76.3 267 76.3 266.75 76.3 266.55 76.15 266.35 75.95 266.2 75.7
L 263.35 70.15 261.4 70.15 261.4 75.55
Q 261.4 75.9 261.1 76.1 260.75 76.25 260.35 76.25 260 76.25 259.65 76.1 259.35 75.9 259.35 75.55
L 259.35 62.65
Q 259.35 62.4 259.55 62.2 259.7 62 260.05 62
L 263.75 62
Q 264.95 62 266 62.35
M 273.1 57.85
Q 273.3 58.15 273.3 58.4 273.3 58.8 273 58.95
L 270.65 60.1
Q 270.55 60.15 270.5 60.15 270.45 60.2 270.4 60.2 270.1 60.2 269.9 59.9 269.7 59.65 269.7 59.4 269.7 59.05 270 58.85
L 272.45 57.65
Q 272.55 57.6 272.65 57.6 272.95 57.6 273.1 57.85
M 271.85 62.15
Q 272.15 62.3 272.15 62.65
L 272.15 75.55
Q 272.15 75.9 271.85 76.1 271.5 76.25 271.1 76.25 270.75 76.25 270.4 76.1 270.1 75.9 270.1 75.55
L 270.1 62.65
Q 270.1 62.3 270.4 62.15 270.75 62 271.1 62 271.5 62 271.85 62.15
M 279.75 62.05
Q 280.1 62.2 280.25 62.6
L 284.1 75.2
Q 284.15 75.35 284.15 75.4 284.15 75.6 283.95 75.8 283.7 76 283.45 76.15 283.1 76.25 282.85 76.25 282.55 76.25 282.4 76.15 282.2 76.05 282.1 75.8
L 281.3 73.05 276.5 73.05 275.7 75.8
Q 275.65 76.05 275.45 76.15 275.25 76.25 275 76.25 274.7 76.25 274.4 76.15 274.1 76 273.9 75.85 273.7 75.65 273.7 75.4 273.7 75.35 273.75 75.2
L 277.6 62.6
Q 277.75 62.2 278.1 62.05 278.5 61.9 278.9 61.9 279.35 61.9 279.75 62.05
M 276.95 71.4
L 280.85 71.4 278.9 64.7 276.95 71.4
M 265.5 67.95
Q 266.15 67.4 266.15 66.15 266.15 64.9 265.5 64.35 264.85 63.8 263.75 63.8
L 261.4 63.8 261.4 68.45 263.75 68.45
Q 264.85 68.45 265.5 67.95
M 231.1 67.95
Q 231.75 67.4 231.75 66.15 231.75 64.9 231.1 64.35 230.45 63.8 229.35 63.8
L 227 63.8 227 68.45 229.35 68.45
Q 230.45 68.45 231.1 67.95
M 164.05 73.8
Q 164.7 73.2 164.7 71.9
L 164.7 66.35
Q 164.7 65.05 164.05 64.45 163.45 63.8 162.35 63.8
L 160.05 63.8 160.05 74.4 162.35 74.4
Q 163.45 74.4 164.05 73.8
M 139 64.45
Q 138.35 63.8 137.25 63.8 136.2 63.8 135.55 64.45 134.95 65.05 134.95 66.35
L 134.95 72
Q 134.95 73.3 135.55 73.9 136.2 74.55 137.25 74.55 138.35 74.55 138.95 73.9 139.6 73.3 139.6 72
L 139.6 66.35
Q 139.6 65.05 139 64.45
M 118.45 64.35
Q 117.8 63.8 116.7 63.8
L 114.35 63.8 114.35 68.45 116.7 68.45
Q 117.8 68.45 118.45 67.95 119.1 67.4 119.1 66.15 119.1 64.9 118.45 64.35 Z"/>

<path fill="#FFFFFF" stroke="none" d="
M 42.9 12.05
L 42.9 9.05 37.95 9.05 37.95 4.3 34.7 4.3 34.7 9.05 30.05 9.05 30.05 12.05 34.7 12.05 34.7 17.1 37.95 17.1 37.95 12.05 42.9 12.05
M 280.25 62.6
Q 280.1 62.2 279.75 62.05 279.35 61.9 278.9 61.9 278.5 61.9 278.1 62.05 277.75 62.2 277.6 62.6
L 273.75 75.2
Q 273.7 75.35 273.7 75.4 273.7 75.65 273.9 75.85 274.1 76 274.4 76.15 274.7 76.25 275 76.25 275.25 76.25 275.45 76.15 275.65 76.05 275.7 75.8
L 276.5 73.05 281.3 73.05 282.1 75.8
Q 282.2 76.05 282.4 76.15 282.55 76.25 282.85 76.25 283.1 76.25 283.45 76.15 283.7 76 283.95 75.8 284.15 75.6 284.15 75.4 284.15 75.35 284.1 75.2
L 280.25 62.6
M 280.85 71.4
L 276.95 71.4 278.9 64.7 280.85 71.4
M 272.15 62.65
Q 272.15 62.3 271.85 62.15 271.5 62 271.1 62 270.75 62 270.4 62.15 270.1 62.3 270.1 62.65
L 270.1 75.55
Q 270.1 75.9 270.4 76.1 270.75 76.25 271.1 76.25 271.5 76.25 271.85 76.1 272.15 75.9 272.15 75.55
L 272.15 62.65
M 273.3 58.4
Q 273.3 58.15 273.1 57.85 272.95 57.6 272.65 57.6 272.55 57.6 272.45 57.65
L 270 58.85
Q 269.7 59.05 269.7 59.4 269.7 59.65 269.9 59.9 270.1 60.2 270.4 60.2 270.45 60.2 270.5 60.15 270.55 60.15 270.65 60.1
L 273 58.95
Q 273.3 58.8 273.3 58.4
M 267.6 63.6
Q 267 62.7 266 62.35 264.95 62 263.75 62
L 260.05 62
Q 259.7 62 259.55 62.2 259.35 62.4 259.35 62.65
L 259.35 75.55
Q 259.35 75.9 259.65 76.1 260 76.25 260.35 76.25 260.75 76.25 261.1 76.1 261.4 75.9 261.4 75.55
L 261.4 70.15 263.35 70.15 266.2 75.7
Q 266.35 75.95 266.55 76.15 266.75 76.3 267 76.3 267.35 76.3 267.6 76.15 267.9 76 268.1 75.75 268.3 75.5 268.3 75.25 268.3 75.2 268.25 75.1 268.25 75 268.2 74.95
L 265.5 69.85
Q 266.25 69.6 266.9 69.15 267.5 68.7 267.85 67.95 268.2 67.15 268.2 66 268.2 64.45 267.6 63.6
M 266.15 66.15
Q 266.15 67.4 265.5 67.95 264.85 68.45 263.75 68.45
L 261.4 68.45 261.4 63.8 263.75 63.8
Q 264.85 63.8 265.5 64.35 266.15 64.9 266.15 66.15
M 250.05 62
Q 249.75 62 249.45 62.15 249.15 62.35 249.15 62.7
L 249.15 75.55
Q 249.15 75.9 249.45 76.1 249.75 76.25 250.05 76.25
L 257 76.25
Q 257.35 76.25 257.5 75.95 257.7 75.65 257.7 75.35 257.7 74.95 257.5 74.7 257.3 74.4 257 74.4
L 251.2 74.4 251.2 69.95 254.2 69.95
Q 254.6 69.95 254.75 69.65 254.9 69.4 254.9 69.15 254.9 68.8 254.7 68.55 254.55 68.3 254.2 68.3
L 251.2 68.3 251.2 63.8 257 63.8
Q 257.3 63.8 257.5 63.55 257.7 63.25 257.7 62.9 257.7 62.6 257.5 62.3 257.35 62 257 62
L 250.05 62
M 246.55 63
Q 246.55 62.45 246.25 62.2 245.95 62 245.5 62 245.15 62 244.9 62.1 244.6 62.2 244.4 62.45 244.15 62.7 243.9 63.15
L 241.15 68.35 238.4 63.15
Q 238.15 62.7 237.95 62.45 237.7 62.2 237.4 62.1 237.15 62 236.75 62 236.4 62 236.05 62.2 235.75 62.45 235.75 63
L 235.75 75.55
Q 235.75 75.9 236.05 76.1 236.4 76.25 236.75 76.25 237.15 76.25 237.5 76.1 237.8 75.9 237.8 75.55
L 237.8 66.1 240.4 71.05
Q 240.55 71.3 240.75 71.4 240.95 71.5 241.1 71.5 241.35 71.5 241.5 71.4 241.7 71.3 241.9 71.05
L 244.5 66.2 244.5 75.55
Q 244.5 75.9 244.8 76.1 245.15 76.25 245.5 76.25 245.9 76.25 246.25 76.1 246.55 75.9 246.55 75.55
L 246.55 63
M 231.6 62.35
Q 230.55 62 229.35 62
L 225.65 62
Q 225.3 62 225.15 62.2 224.95 62.4 224.95 62.65
L 224.95 75.55
Q 224.95 75.9 225.25 76.1 225.6 76.25 225.95 76.25 226.35 76.25 226.7 76.1 227 75.9 227 75.55
L 227 70.15 228.95 70.15 231.8 75.7
Q 231.95 75.95 232.15 76.15 232.35 76.3 232.6 76.3 232.95 76.3 233.2 76.15 233.5 76 233.7 75.75 233.9 75.5 233.9 75.25 233.9 75.2 233.85 75.1 233.85 75 233.8 74.95
L 231.1 69.85
Q 231.85 69.6 232.5 69.15 233.1 68.7 233.45 67.95 233.8 67.15 233.8 66 233.8 64.45 233.2 63.6 232.6 62.7 231.6 62.35
M 231.75 66.15
Q 231.75 67.4 231.1 67.95 230.45 68.45 229.35 68.45
L 227 68.45 227 63.8 229.35 63.8
Q 230.45 63.8 231.1 64.35 231.75 64.9 231.75 66.15
M 223.15 63.55
Q 223.35 63.25 223.35 62.9 223.35 62.6 223.15 62.3 223 62 222.65 62
L 215.7 62
Q 215.4 62 215.1 62.15 214.8 62.35 214.8 62.7
L 214.8 75.55
Q 214.8 75.9 215.1 76.1 215.4 76.25 215.7 76.25
L 222.65 76.25
Q 223 76.25 223.15 75.95 223.35 75.65 223.35 75.35 223.35 74.95 223.15 74.7 222.95 74.4 222.65 74.4
L 216.85 74.4 216.85 69.95 219.85 69.95
Q 220.25 69.95 220.4 69.65 220.55 69.4 220.55 69.15 220.55 68.8 220.35 68.55 220.2 68.3 219.85 68.3
L 216.85 68.3 216.85 63.8 222.65 63.8
Q 222.95 63.8 223.15 63.55
M 205.25 62.15
Q 204.95 62.35 204.95 62.7
L 204.95 75.55
Q 204.95 75.9 205.25 76.1 205.6 76.25 205.95 76.25 206.35 76.25 206.7 76.1 207 75.9 207 75.55
L 207 69.95 210.05 69.95
Q 210.4 69.95 210.55 69.65 210.7 69.4 210.7 69.15 210.7 68.8 210.5 68.55 210.35 68.3 210.05 68.3
L 207 68.3 207 63.8 212.7 63.8
Q 213.05 63.8 213.2 63.55 213.35 63.25 213.35 62.9 213.35 62.6 213.2 62.3 213.05 62 212.7 62
L 205.85 62
Q 205.55 62 205.25 62.15
M 202.35 62.65
Q 202.35 62.3 202.05 62.15 201.75 62 201.35 62 200.95 62 200.65 62.15 200.3 62.3 200.3 62.65
L 200.3 71.6 196 63.15
Q 195.75 62.7 195.55 62.45 195.3 62.2 195.05 62.1 194.8 62 194.4 62 194.05 62 193.7 62.15 193.4 62.3 193.4 62.7
L 193.4 75.55
Q 193.4 75.9 193.7 76.1 194.05 76.25 194.4 76.25 194.8 76.25 195.15 76.1 195.45 75.9 195.45 75.55
L 195.45 66.6 200.1 75.5
Q 200.35 75.85 200.65 76.05 200.95 76.25 201.35 76.25 201.75 76.25 202.05 76.1 202.35 75.9 202.35 75.55
L 202.35 62.65
M 191.55 63.55
Q 191.75 63.25 191.75 62.9 191.75 62.6 191.55 62.3 191.4 62 191.05 62
L 184.1 62
Q 183.8 62 183.5 62.15 183.2 62.35 183.2 62.7
L 183.2 75.55
Q 183.2 75.9 183.5 76.1 183.8 76.25 184.1 76.25
L 191.05 76.25
Q 191.4 76.25 191.55 75.95 191.75 75.65 191.75 75.35 191.75 74.95 191.55 74.7 191.35 74.4 191.05 74.4
L 185.25 74.4 185.25 69.95 188.25 69.95
Q 188.65 69.95 188.8 69.65 188.95 69.4 188.95 69.15 188.95 68.8 188.75 68.55 188.6 68.3 188.25 68.3
L 185.25 68.3 185.25 63.8 191.05 63.8
Q 191.35 63.8 191.55 63.55
M 170.05 62
Q 169.75 62 169.45 62.15 169.15 62.35 169.15 62.7
L 169.15 75.55
Q 169.15 75.9 169.45 76.1 169.75 76.25 170.05 76.25
L 177 76.25
Q 177.35 76.25 177.5 75.95 177.7 75.65 177.7 75.35 177.7 74.95 177.5 74.7 177.3 74.4 177 74.4
L 171.2 74.4 171.2 69.95 174.2 69.95
Q 174.6 69.95 174.75 69.65 174.9 69.4 174.9 69.15 174.9 68.8 174.7 68.55 174.55 68.3 174.2 68.3
L 171.2 68.3 171.2 63.8 177 63.8
Q 177.3 63.8 177.5 63.55 177.7 63.25 177.7 62.9 177.7 62.6 177.5 62.3 177.35 62 177 62
L 170.05 62
M 164.6 62.4
Q 163.6 62 162.35 62
L 158.9 62
Q 158.5 62 158.25 62.2 158 62.4 158 62.65
L 158 75.6
Q 158 75.85 158.25 76.05 158.5 76.25 158.9 76.25
L 162.35 76.25
Q 163.6 76.25 164.6 75.8 165.6 75.4 166.15 74.45 166.75 73.5 166.75 71.9
L 166.75 66.35
Q 166.75 64.75 166.15 63.8 165.6 62.85 164.6 62.4
M 164.7 71.9
Q 164.7 73.2 164.05 73.8 163.45 74.4 162.35 74.4
L 160.05 74.4 160.05 63.8 162.35 63.8
Q 163.45 63.8 164.05 64.45 164.7 65.05 164.7 66.35
L 164.7 71.9
M 149.55 63.9
Q 150.05 64.1 150.35 64.25 150.65 64.45 150.9 64.45 151.2 64.45 151.4 64.25 151.6 64.05 151.65 63.8 151.75 63.55 151.75 63.35 151.75 62.95 151.4 62.7 151.05 62.4 150.45 62.25 149.9 62.05 149.3 62 148.7 61.95 148.2 61.95 147.45 61.95 146.65 62.1 145.85 62.3 145.2 62.75 144.5 63.15 144.1 63.9 143.7 64.6 143.7 65.7 143.7 66.7 144.05 67.35 144.4 68.05 144.95 68.5 145.55 68.9 146.2 69.25 146.9 69.55 147.55 69.8 148.2 70.1 148.8 70.4 149.35 70.75 149.7 71.25 150.05 71.75 150.05 72.45 150.05 73.15 149.75 73.65 149.4 74.1 148.85 74.3 148.3 74.55 147.6 74.55 146.8 74.55 146.25 74.3 145.7 74.05 145.35 73.75 145 73.45 144.8 73.2 144.55 73 144.25 73 144.05 73 143.85 73.15 143.6 73.35 143.5 73.6 143.35 73.85 143.35 74.1 143.35 74.6 143.9 75.15 144.45 75.65 145.45 76.05 146.4 76.4 147.7 76.4 148.95 76.4 149.95 75.95 150.95 75.5 151.55 74.6 152.1 73.65 152.1 72.25 152.1 71.15 151.8 70.4 151.45 69.65 150.85 69.15 150.3 68.65 149.6 68.3 148.95 68 148.25 67.75 147.6 67.45 147.05 67.2 146.45 66.9 146.1 66.5 145.8 66.1 145.8 65.5 145.8 64.85 146.1 64.5 146.4 64.1 146.95 63.9 147.5 63.7 148.2 63.7 149.05 63.7 149.55 63.9
M 141.65 66.35
Q 141.65 64.75 141.05 63.8 140.5 62.85 139.5 62.4 138.5 62 137.25 62 136.05 62 135.05 62.4 134.05 62.85 133.45 63.8 132.9 64.75 132.9 66.35
L 132.9 72
Q 132.9 73.6 133.45 74.55 134.05 75.5 135.05 75.95 136.05 76.35 137.25 76.35 138.5 76.35 139.5 75.95 140.5 75.5 141.05 74.55 141.65 73.6 141.65 72
L 141.65 66.35
M 137.25 63.8
Q 138.35 63.8 139 64.45 139.6 65.05 139.6 66.35
L 139.6 72
Q 139.6 73.3 138.95 73.9 138.35 74.55 137.25 74.55 136.2 74.55 135.55 73.9 134.95 73.3 134.95 72
L 134.95 66.35
Q 134.95 65.05 135.55 64.45 136.2 63.8 137.25 63.8
M 130.6 63.8
Q 130.7 63.55 130.7 63.35 130.7 62.95 130.35 62.7 130 62.4 129.4 62.25 128.85 62.05 128.25 62 127.65 61.95 127.15 61.95 126.4 61.95 125.6 62.1 124.8 62.3 124.15 62.75 123.45 63.15 123.05 63.9 122.65 64.6 122.65 65.7 122.65 66.7 123 67.35 123.35 68.05 123.9 68.5 124.5 68.9 125.15 69.25 125.85 69.55 126.5 69.8 127.15 70.1 127.75 70.4 128.3 70.75 128.65 71.25 129 71.75 129 72.45 129 73.15 128.7 73.65 128.35 74.1 127.8 74.3 127.25 74.55 126.55 74.55 125.75 74.55 125.2 74.3 124.65 74.05 124.3 73.75 123.95 73.45 123.75 73.2 123.5 73 123.2 73 123 73 122.8 73.15 122.55 73.35 122.45 73.6 122.3 73.85 122.3 74.1 122.3 74.6 122.85 75.15 123.4 75.65 124.4 76.05 125.35 76.4 126.65 76.4 127.9 76.4 128.9 75.95 129.9 75.5 130.5 74.6 131.05 73.65 131.05 72.25 131.05 71.15 130.75 70.4 130.4 69.65 129.8 69.15 129.25 68.65 128.55 68.3 127.9 68 127.2 67.75 126.55 67.45 126 67.2 125.4 66.9 125.05 66.5 124.75 66.1 124.75 65.5 124.75 64.85 125.05 64.5 125.35 64.1 125.9 63.9 126.45 63.7 127.15 63.7 128 63.7 128.5 63.9 129 64.1 129.3 64.25 129.6 64.45 129.85 64.45 130.15 64.45 130.35 64.25 130.55 64.05 130.6 63.8
M 90.85 63.8
Q 90.25 64.75 90.25 66.35
L 90.25 72
Q 90.25 73.6 90.85 74.55 91.4 75.5 92.4 75.95 93.4 76.35 94.55 76.35 95.9 76.35 96.9 75.9 97.9 75.45 98.45 74.6 99 73.75 99 72.7 99 72.1 98.75 71.85 98.5 71.65 97.95 71.65 97.55 71.65 97.25 71.8 96.95 71.95 96.95 72.35 96.9 72.65 96.8 73 96.75 73.4 96.55 73.75 96.3 74.1 95.9 74.3 95.45 74.55 94.7 74.55 93.55 74.55 92.9 73.9 92.3 73.3 92.3 72
L 92.3 66.35
Q 92.3 65.05 92.9 64.45 93.5 63.8 94.65 63.8 95.4 63.8 95.85 64.05 96.3 64.3 96.55 64.6 96.75 64.95 96.85 65.3 96.9 65.65 96.95 65.9 96.95 66.25 97.25 66.45 97.5 66.6 97.95 66.6 98.5 66.6 98.75 66.4 99 66.2 99 65.55 99 64.5 98.45 63.7 97.9 62.9 96.9 62.45 95.95 62 94.55 62 93.4 62 92.4 62.4 91.4 62.85 90.85 63.8
M 120.8 67.95
Q 121.15 67.15 121.15 66 121.15 64.45 120.55 63.6 119.95 62.7 118.95 62.35 117.9 62 116.7 62
L 113 62
Q 112.65 62 112.5 62.2 112.3 62.4 112.3 62.65
L 112.3 75.55
Q 112.3 75.9 112.6 76.1 112.95 76.25 113.3 76.25 113.7 76.25 114.05 76.1 114.35 75.9 114.35 75.55
L 114.35 70.15 116.3 70.15 119.15 75.7
Q 119.3 75.95 119.5 76.15 119.7 76.3 119.95 76.3 120.3 76.3 120.55 76.15 120.85 76 121.05 75.75 121.25 75.5 121.25 75.25 121.25 75.2 121.2 75.1 121.2 75 121.15 74.95
L 118.45 69.85
Q 119.2 69.6 119.85 69.15 120.45 68.7 120.8 67.95
M 116.7 63.8
Q 117.8 63.8 118.45 64.35 119.1 64.9 119.1 66.15 119.1 67.4 118.45 67.95 117.8 68.45 116.7 68.45
L 114.35 68.45 114.35 63.8 116.7 63.8
M 109.8 62.65
Q 109.8 62.3 109.45 62.15 109.1 62 108.75 62 108.35 62 108.05 62.15 107.7 62.3 107.7 62.65
L 107.7 72
Q 107.7 73.3 107.1 73.9 106.45 74.55 105.3 74.55 104.2 74.55 103.55 73.9 102.95 73.3 102.95 72
L 102.95 62.65
Q 102.95 62.3 102.6 62.15 102.3 62 101.9 62 101.5 62 101.2 62.15 100.9 62.3 100.9 62.65
L 100.9 72
Q 100.9 73.6 101.45 74.55 102.05 75.5 103.05 75.95 104.1 76.35 105.3 76.35 106.55 76.35 107.6 75.95 108.6 75.5 109.2 74.55 109.8 73.6 109.8 72
L 109.8 62.65 Z"/>
</g>
</defs>

<g transform="matrix( 0.5690460205078125, 0, 0, 0.5690460205078125, 7.15,6.3) ">
<g transform="matrix( 1, 0, 0, 1, 0,0) ">
<use xlink:href="#Layer0_0_FILL"/>
</g>
</g>
</svg>
